<?xml version="1.0" encoding="UTF-8" standalone="no"?><!DOCTYPE svg PUBLIC "-//W3C//DTD SVG 1.1//EN" "http://www.w3.org/Graphics/SVG/1.1/DTD/svg11.dtd"><svg width="100%" height="100%" viewBox="0 0 266 266" version="1.1" xmlns="http://www.w3.org/2000/svg" xmlns:xlink="http://www.w3.org/1999/xlink" xml:space="preserve" style="fill-rule:evenodd;clip-rule:evenodd;stroke-linejoin:round;stroke-miterlimit:1.41421;"><path fill="#ffffff" d="M132.708,0c73.244,0 132.709,59.465 132.709,132.708c0,73.244 -59.465,132.709 -132.709,132.709c-73.243,0 -132.708,-59.465 -132.708,-132.709c0,-73.243 59.465,-132.708 132.708,-132.708Zm10.736,223.706c11.338,0 20.914,-1.014 28.729,-3.042c7.815,-2.027 14.314,-5.028 19.497,-9c5.183,-3.973 9.536,-9.621 13.059,-16.946c3.278,-6.816 5.031,-14.152 5.258,-22.007l-24.792,-7.264c0.268,1.763 0.401,3.595 0.401,5.498c0,5.793 -1.174,10.904 -3.523,15.331c-2.348,4.428 -5.345,7.801 -8.989,10.118c-3.644,2.318 -8.179,3.973 -13.605,4.966c-3.078,0.579 -8.423,0.869 -16.035,0.869l-44.34,0l0,-62.004l-23.566,-6.905l0,90.386l67.906,0Zm-8.747,-160.518c12.797,0 21.826,0.848 27.09,2.545c5.264,1.696 9.313,4.841 12.147,9.435c2.835,4.593 4.252,9.911 4.252,15.952c0,6.373 -1.518,11.67 -4.555,15.891c-3.037,4.22 -7.552,7.241 -13.545,9.062c-2.47,0.766 -5.818,1.324 -10.042,1.673l28.127,8.241c7.501,-4.101 13.175,-9.35 17.022,-15.749c4.13,-6.869 6.195,-14.193 6.195,-21.973c0,-8.359 -2.328,-16.366 -6.985,-24.022c-4.656,-7.655 -11.095,-13.325 -19.314,-17.008c-8.22,-3.683 -19.133,-5.524 -32.739,-5.524l-66.812,0l0,54.207l23.566,6.904l0,-39.634l35.593,0Z"/></svg>
