<?xml version="1.0" encoding="UTF-8" standalone="no"?><!DOCTYPE svg PUBLIC "-//W3C//DTD SVG 1.1//EN" "http://www.w3.org/Graphics/SVG/1.1/DTD/svg11.dtd"><svg width="100%" height="100%" viewBox="0 0 208 263" version="1.1" xmlns="http://www.w3.org/2000/svg" xmlns:xlink="http://www.w3.org/1999/xlink" xml:space="preserve" style="fill-rule:evenodd;clip-rule:evenodd;stroke-linejoin:round;stroke-miterlimit:1.41421;"><path fill="#494E6B" d="M54.157,215.72l153.007,0c-1.083,3.113 -2.364,6.128 -3.844,9.045c-5.518,10.873 -13.066,19.477 -22.643,25.81c-5.934,3.943 -14.888,6.811 -26.86,8.603c-15.927,2.39 -26.493,3.585 -31.7,3.585l-122.117,0l0,-262.763l54.157,0l0,215.72Zm47.825,-215.72l30.441,0c22.071,0 39.014,6.273 50.83,18.82c11.816,12.547 17.724,28.081 17.724,46.602c0,15.534 -4.216,28.857 -12.648,39.97c-5.622,7.409 -13.847,13.264 -24.674,17.565c16.449,4.541 28.551,12.338 36.307,23.391c3.33,4.745 5.945,10.013 7.845,15.804l-102.009,0l0,0.099l-3.816,0l0,-162.251Z"/></svg>
