<?xml version="1.0" encoding="UTF-8" standalone="no"?><!DOCTYPE svg PUBLIC "-//W3C//DTD SVG 1.1//EN" "http://www.w3.org/Graphics/SVG/1.1/DTD/svg11.dtd"><svg width="100%" height="100%" viewBox="0 0 305 305" version="1.1" xmlns="http://www.w3.org/2000/svg" xmlns:xlink="http://www.w3.org/1999/xlink" xml:space="preserve" style="fill-rule:evenodd;clip-rule:evenodd;stroke-linejoin:round;stroke-miterlimit:1.41421;"><path fill="#ffffff" d="M304.757,152.378l-152.379,-152.378l-152.378,152.378l152.378,152.379l152.379,-152.379Zm-148.084,76.906c9.516,0 17.553,-0.851 24.112,-2.553c6.559,-1.701 12.014,-4.219 16.364,-7.553c4.35,-3.335 8.003,-8.075 10.96,-14.223c2.751,-5.72 4.222,-11.877 4.413,-18.47l-20.808,-6.096c0.225,1.479 0.337,3.017 0.337,4.614c0,4.862 -0.986,9.151 -2.957,12.867c-1.971,3.717 -4.486,6.547 -7.544,8.492c-3.059,1.945 -6.865,3.334 -11.419,4.168c-2.583,0.486 -7.069,0.729 -13.458,0.729l-37.213,0l0,-52.039l-19.779,-5.795l0,75.859l56.992,0Zm-7.341,-134.72c10.74,0.001 18.318,0.713 22.736,2.136c4.418,1.424 7.816,4.064 10.195,7.919c2.379,3.855 3.569,8.318 3.569,13.389c0,5.348 -1.275,9.794 -3.824,13.336c-2.548,3.543 -6.338,6.078 -11.367,7.606c-2.074,0.643 -4.883,1.111 -8.429,1.404l23.607,6.916c6.295,-3.441 11.057,-7.847 14.286,-13.217c3.467,-5.765 5.2,-11.912 5.2,-18.442c0,-7.015 -1.954,-13.736 -5.863,-20.161c-3.908,-6.425 -9.311,-11.183 -16.21,-14.274c-6.899,-3.091 -16.058,-4.637 -27.477,-4.637l-56.074,0l0,45.495l19.779,5.795l0,-33.265l29.872,0Z"/></svg>
