<?xml version="1.0" encoding="UTF-8" standalone="no"?><!DOCTYPE svg PUBLIC "-//W3C//DTD SVG 1.1//EN" "http://www.w3.org/Graphics/SVG/1.1/DTD/svg11.dtd"><svg width="100%" height="100%" viewBox="0 0 267 267" version="1.1" xmlns="http://www.w3.org/2000/svg" xmlns:xlink="http://www.w3.org/1999/xlink" xml:space="preserve" style="fill-rule:evenodd;clip-rule:evenodd;stroke-linejoin:round;stroke-miterlimit:1.41421;"><path fill="#ffffff" d="M266.507,133.253l-133.254,-133.253l-133.253,133.253l133.253,133.254l133.254,-133.254Zm-158.093,48.47l0,-123.976l-31.125,0l0,151.013l70.182,0c2.993,0 9.066,-0.687 18.218,-2.06c6.881,-1.03 12.026,-2.679 15.437,-4.945c5.504,-3.639 9.842,-8.584 13.013,-14.833c0.85,-1.676 1.587,-3.409 2.209,-5.199l-87.934,0Zm88.304,-30.786c-1.092,-3.328 -2.595,-6.355 -4.508,-9.082c-4.458,-6.353 -11.413,-10.834 -20.867,-13.443c6.223,-2.472 10.95,-5.837 14.18,-10.095c4.847,-6.387 7.27,-14.044 7.27,-22.971c0,-10.645 -3.395,-19.572 -10.186,-26.783c-6.791,-7.211 -16.529,-10.816 -29.213,-10.816l-17.495,0l0,93.248l2.193,0l0,-0.058l58.626,0Z"/></svg>
